<svg width="46" height="93" viewBox="0 0 46 93" fill="none" xmlns="http://www.w3.org/2000/svg">
<g id="Group">
<path id="Vector" d="M30.2087 59.9183L22.4725 58.3713C18.0759 57.4917 15.1321 53.3306 15.7661 48.8923L18.4616 30.023C18.7023 28.3401 19.4871 26.8031 20.6288 25.5523C19.4823 25.4944 18.3051 25.8633 17.3897 26.7782L11.4212 32.7463C10.1287 34.0387 9.2899 35.7159 9.03198 37.5252L6.33651 56.3945C5.70247 60.8337 8.64679 64.9944 13.0429 65.8734L20.7791 67.4205C24.1359 68.0913 27.5663 66.6711 29.4656 63.8225L32.0108 60.0049C31.4117 60.0169 30.8121 60.0394 30.2087 59.9183Z" fill="#FFD796"/>
<path id="Vector_2" d="M3.33669 5.13019V13.8547C3.33669 16.3014 6.61105 17.9741 9.62167 17.0653L23.3707 12.9157C25.1104 12.3904 26.2515 11.1189 26.2515 9.70514V5.13019C26.2515 3.22054 24.1992 1.67205 21.6683 1.67205H7.91933C5.38893 1.67205 3.33669 3.22054 3.33669 5.13019Z" fill="#FFE6A1"/>
<path id="Vector_3" d="M11.0175 33.8278L8.09308 49.2751C7.40519 52.9087 10.5996 56.3152 15.3691 57.0348L23.7624 58.3012C27.4049 58.8512 31.1262 57.6878 33.1868 55.3558L36.3433 51.7833C37.9781 49.9324 38.3343 47.6013 37.2991 45.5189L27.7377 26.2809C26.5483 23.8882 22.4806 23.2235 20.0857 25.0305L13.6107 29.9157C12.208 30.9737 11.2984 32.3467 11.0175 33.8278Z" fill="#FFE6A1"/>
<path id="Vector_4" d="M14.2416 10.3551C11.4667 11.4648 8.44867 9.42149 8.44867 6.43316V0H4.22434C1.89157 0 0 1.89157 0 4.22434V14.8818C0 17.8706 3.01801 19.9139 5.79292 18.8038L18.4654 13.7348C20.069 13.0931 21.1207 11.5404 21.1207 9.81292V7.60361L14.2416 10.3551Z" fill="#FFD796"/>
<path id="Vector_5" d="M31.6753 79.4532L29.1785 84.447C28.5841 85.6361 28.5841 87.0358 29.1785 88.2249L30.3178 90.5045C31.4543 92.777 34.3249 93.5398 36.439 92.1305L43.2487 87.5909C44.424 86.807 45.1298 85.4883 45.1298 84.0762V79.525C45.1298 76.6419 42.3051 74.6059 39.5699 75.5179L34.1172 77.3353C33.0549 77.6889 32.1764 78.4507 31.6753 79.4532Z" fill="#FFD796"/>
</g>
</svg>
