<svg width="1920" height="1080" viewBox="0 0 1920 1080" fill="none" xmlns="http://www.w3.org/2000/svg">
<rect width="1920" height="1080" fill="#A69999"/>
<g id="MacBook Pro 16&#34; - 1">
<rect width="1920" height="1080" fill="white"/>
<g id="cookies-svgrepo-com 1" clip-path="url(#clip0_0_1)">
<path id="Vector" d="M933.511 669.844L921.864 672.174C917.988 672.949 914.092 670.933 912.487 667.32L900.011 639.248C898.954 636.871 896.862 635.114 894.34 634.483L887.84 632.858C884.079 631.918 881.441 628.539 881.441 624.662V579.617C881.441 577.512 880.655 575.482 879.237 573.926L863.544 556.706C849.396 552.226 834.145 550.227 818.289 551.271C757.347 555.286 707.979 604.86 704.261 665.82C699.922 736.955 756.329 796 826.526 796C893.482 796 947.856 742.275 948.974 675.586L938.947 670.572C937.266 669.732 935.354 669.476 933.511 669.844Z" fill="#FFE6A1"/>
<g id="Group">
<path id="Vector_2" d="M864.543 757.982C863.8 757.982 863.067 757.94 862.327 757.926C857.685 763.133 850.947 766.431 843.423 766.431C832.34 766.431 822.944 759.306 819.5 749.396C804.341 743.397 790.668 734.472 779.177 723.3C777.439 723.824 775.633 724.189 773.724 724.189C763.226 724.189 754.715 715.679 754.715 705.181C754.715 701.514 755.803 698.121 757.601 695.217C757.472 694.987 757.335 694.764 757.207 694.533C744.022 693.639 733.595 682.688 733.595 669.276C733.595 661.371 737.216 654.315 742.887 649.667C742.349 645.011 742.043 640.284 742.043 635.482C742.043 611.39 749.027 588.941 761.039 569.996C726.784 591.715 704.026 629.938 704.026 673.5C704.026 741.155 758.871 796 826.526 796C870.088 796 908.311 773.242 930.031 738.987C911.085 750.999 888.637 757.982 864.543 757.982Z" fill="#C98850"/>
<path id="Vector_3" d="M799.07 652.379C804.902 652.379 809.63 647.651 809.63 641.819C809.63 635.987 804.902 631.259 799.07 631.259C793.237 631.259 788.509 635.987 788.509 641.819C788.509 647.651 793.237 652.379 799.07 652.379Z" fill="#C98850"/>
<path id="Vector_4" d="M911.009 722.077C916.842 722.077 921.57 717.349 921.57 711.517C921.57 705.685 916.842 700.957 911.009 700.957C905.177 700.957 900.449 705.685 900.449 711.517C900.449 717.349 905.177 722.077 911.009 722.077Z" fill="#C98850"/>
<path id="Vector_5" d="M814.91 722.077C818.992 722.077 822.302 718.768 822.302 714.685C822.302 710.603 818.992 707.293 814.91 707.293C810.827 707.293 807.518 710.603 807.518 714.685C807.518 718.768 810.827 722.077 814.91 722.077Z" fill="#C98850"/>
<path id="Vector_6" d="M871.936 654.491C876.019 654.491 879.328 651.181 879.328 647.099C879.328 643.016 876.019 639.707 871.936 639.707C867.853 639.707 864.544 643.016 864.544 647.099C864.544 651.181 867.853 654.491 871.936 654.491Z" fill="#C98850"/>
<path id="Vector_7" d="M842.367 589.017C846.45 589.017 849.759 585.708 849.759 581.625C849.759 577.542 846.45 574.233 842.367 574.233C838.285 574.233 834.975 577.542 834.975 581.625C834.975 585.708 838.285 589.017 842.367 589.017Z" fill="#C98850"/>
</g>
<g id="Group_2">
<path id="Vector_8" d="M820.379 659.808L815.496 667.947C812.577 672.811 815.188 679.113 820.691 680.489L835.227 684.123C839.753 685.255 844.341 682.503 845.472 677.976L847.135 671.325C847.471 669.979 847.471 668.572 847.135 667.227L845.376 660.194C844.283 655.819 839.946 653.074 835.524 653.958L825.967 655.87C823.633 656.337 821.604 657.767 820.379 659.808Z" fill="#B97850"/>
<path id="Vector_9" d="M844.761 712.103L839.668 720.591C837.136 724.811 838.733 730.294 843.134 732.494L859.347 740.601C864.181 743.018 870.01 740.337 871.322 735.094L872.992 728.413L874.943 720.605C876.158 715.745 872.902 710.901 867.942 710.192L853.199 708.086C849.835 707.605 846.51 709.189 844.761 712.103Z" fill="#B97850"/>
<path id="Vector_10" d="M755.877 661.708L749.662 672.068C747.667 675.392 748.191 679.647 750.932 682.388L760.714 692.171C764.275 695.731 770.139 695.406 773.285 691.474L781.671 680.992C783.318 678.933 783.91 676.223 783.27 673.665L781.357 666.015C780.565 662.847 778.02 660.42 774.818 659.779L764.778 657.771C761.277 657.071 757.714 658.647 755.877 661.708Z" fill="#B97850"/>
<path id="Vector_11" d="M790.272 593.118L785.479 601.107C782.699 605.741 784.925 611.759 790.052 613.468L800.452 616.935C803.488 617.947 806.835 617.157 809.098 614.894L814.696 609.296C816.794 607.198 817.638 604.152 816.918 601.273L815.454 595.417C814.514 591.655 811.134 589.017 807.257 589.017H797.516C794.549 589.017 791.799 590.574 790.272 593.118Z" fill="#B97850"/>
<path id="Vector_12" d="M892.304 658.412L887.414 663.302C884.115 666.601 884.115 671.951 887.414 675.25L889.807 677.643C892.378 680.215 896.306 680.852 899.559 679.225L913.396 672.307C916.938 670.536 918.775 666.543 917.814 662.702L917.187 660.195C916.094 655.82 911.757 653.075 907.335 653.959L896.621 656.102C894.985 656.428 893.483 657.233 892.304 658.412Z" fill="#B97850"/>
<path id="Vector_13" d="M860.89 598.113L855.28 605.594C853.219 608.341 853.027 612.064 854.794 615.01L859.986 623.662C862.467 627.798 867.903 629.02 871.916 626.345L882.458 619.317C886.493 616.627 887.44 611.098 884.53 607.218L878.799 599.577C877.768 598.203 876.343 597.175 874.712 596.632L870.321 595.167C866.87 594.017 863.072 595.203 860.89 598.113Z" fill="#B97850"/>
<path id="Vector_14" d="M788.596 731.585L783.08 738.48C779.538 742.907 781.276 749.496 786.54 751.602L793.949 754.566C795.964 755.372 798.211 755.372 800.225 754.566L808.54 751.239C813.523 749.247 815.409 743.174 812.433 738.709L811.004 736.566C810.188 735.343 809.068 734.354 807.753 733.696L798.972 729.306C795.408 727.524 791.085 728.474 788.596 731.585Z" fill="#B97850"/>
</g>
<g id="Group_3">
<path id="Vector_15" d="M771.197 691.167L761.415 681.385C758.674 678.645 758.15 674.389 760.145 671.065L766.36 660.706C766.89 659.823 767.591 659.105 768.366 658.489L764.779 657.772C761.278 657.072 757.714 658.648 755.877 661.709L749.662 672.069C747.667 675.393 748.191 679.648 750.932 682.389L760.714 692.171C764.014 695.472 769.268 695.392 772.526 692.238C772.059 691.928 771.609 691.58 771.197 691.167Z" fill="#A5694B"/>
<path id="Vector_16" d="M808.914 613.928L798.513 610.461C793.386 608.752 791.159 602.734 793.94 598.1L798.733 590.111C798.977 589.705 799.299 589.37 799.601 589.017H797.515C794.548 589.017 791.798 590.574 790.271 593.119L785.478 601.107C782.697 605.741 784.923 611.759 790.051 613.468L800.452 616.935C803.487 617.947 806.834 617.157 809.097 614.894L809.884 614.107C809.561 614.04 809.232 614.034 808.914 613.928Z" fill="#A5694B"/>
<path id="Vector_17" d="M843.242 681.694L828.707 678.06C823.203 676.684 820.592 670.382 823.512 665.518L828.395 657.379C828.976 656.41 829.749 655.592 830.639 654.936L825.967 655.871C823.633 656.337 821.604 657.767 820.379 659.809L815.496 667.948C812.577 672.812 815.188 679.114 820.691 680.49L835.227 684.124C838.289 684.89 841.351 683.85 843.38 681.715C843.334 681.703 843.288 681.706 843.242 681.694Z" fill="#A5694B"/>
<path id="Vector_18" d="M867.877 622.931L862.685 614.279C860.918 611.334 861.11 607.612 863.171 604.863L868.782 597.383C869.396 596.563 870.159 595.921 870.986 595.388L870.32 595.167C866.87 594.017 863.072 595.203 860.889 598.112L855.279 605.593C853.218 608.341 853.027 612.063 854.794 615.009L859.985 623.661C862.459 627.783 867.864 629.006 871.873 626.366C870.267 625.697 868.845 624.544 867.877 622.931Z" fill="#A5694B"/>
<path id="Vector_19" d="M896.587 677.08C893.287 673.781 893.287 668.432 896.587 665.133L901.477 660.243C902.656 659.064 904.158 658.259 905.794 657.932L914.812 656.129C912.882 654.295 910.127 653.4 907.334 653.959L896.621 656.102C894.985 656.429 893.483 657.233 892.304 658.412L887.414 663.302C884.115 666.601 884.115 671.95 887.414 675.249L889.807 677.643C892.219 680.055 895.808 680.687 898.93 679.424L896.587 677.08Z" fill="#A5694B"/>
<path id="Vector_20" d="M853.6 731.786C849.198 729.585 847.602 724.103 850.134 719.883L855.227 711.395C855.895 710.283 856.839 709.439 857.88 708.755L853.2 708.087C849.835 707.606 846.51 709.189 844.762 712.103L839.669 720.591C837.137 724.811 838.733 730.294 843.135 732.494L859.348 740.601C862.579 742.217 866.226 741.519 868.699 739.336L853.6 731.786Z" fill="#A5694B"/>
<path id="Vector_21" d="M802.398 753.154L794.988 750.19C789.725 748.085 787.987 741.495 791.528 737.068L797.044 730.173C797.395 729.735 797.788 729.352 798.203 729.002C794.803 727.7 790.91 728.692 788.596 731.585L783.08 738.48C779.538 742.907 781.276 749.496 786.54 751.602L793.949 754.566C795.964 755.372 798.211 755.372 800.225 754.566L803.18 753.383C802.919 753.307 802.652 753.256 802.398 753.154Z" fill="#A5694B"/>
</g>
<path id="Vector_22" d="M737.814 724.185C737.181 724.185 736.535 724.041 735.929 723.74C733.842 722.696 732.996 720.16 734.04 718.072L738.265 709.624C739.309 707.537 741.839 706.699 743.932 707.735C746.019 708.779 746.865 711.315 745.821 713.402L741.597 721.851C740.857 723.331 739.366 724.185 737.814 724.185Z" fill="#C98850"/>
<path id="Vector_23" d="M813.854 779.103H809.629C807.297 779.103 805.405 777.214 805.405 774.879C805.405 772.544 807.297 770.654 809.629 770.654H813.854C816.187 770.654 818.078 772.544 818.078 774.879C818.078 777.214 816.187 779.103 813.854 779.103Z" fill="#925F4A"/>
<path id="Vector_24" d="M796.953 698.845C796.32 698.845 795.674 698.701 795.068 698.399C792.981 697.355 792.135 694.818 793.179 692.732L797.403 684.283C798.445 682.2 800.976 681.359 803.071 682.394C805.158 683.438 806.004 685.974 804.96 688.062L800.736 696.51C799.996 697.991 798.504 698.845 796.953 698.845Z" fill="#C98850"/>
<g id="Group_4">
<path id="Vector_25" d="M771.609 631.259C770.975 631.259 770.329 631.115 769.724 630.813L761.275 626.589C759.188 625.545 758.342 623.008 759.386 620.921C760.428 618.838 762.961 617.992 765.054 619.032L773.502 623.256C775.589 624.3 776.435 626.836 775.391 628.923C774.651 630.404 773.159 631.259 771.609 631.259Z" fill="#925F4A"/>
<path id="Vector_26" d="M822.302 572.12H813.854C811.522 572.12 809.63 570.231 809.63 567.896C809.63 565.561 811.522 563.672 813.854 563.672H822.302C824.635 563.672 826.527 565.561 826.527 567.896C826.527 570.231 824.635 572.12 822.302 572.12Z" fill="#925F4A"/>
</g>
<path id="Vector_27" d="M839.203 635.482C837.652 635.482 836.161 634.629 835.42 633.148L831.196 624.7C830.152 622.612 830.998 620.075 833.085 619.032C835.177 617.992 837.712 618.838 838.753 620.921L842.977 629.369C844.021 631.457 843.175 633.994 841.088 635.037C840.481 635.338 839.836 635.482 839.203 635.482Z" fill="#C98850"/>
<g id="Group_5">
<path id="Vector_28" d="M723.277 656.167C722.709 655.887 722.194 655.472 721.783 654.934C720.371 653.075 720.735 650.426 722.594 649.014L730.117 643.303C731.974 641.891 734.622 642.257 736.036 644.113C737.448 645.972 737.085 648.621 735.226 650.033L727.703 655.744C726.384 656.745 724.669 656.852 723.277 656.167Z" fill="#925F4A"/>
<path id="Vector_29" d="M881.44 703.069C880.359 703.069 879.278 702.656 878.454 701.831L870.006 693.383C868.356 691.733 868.356 689.06 870.006 687.41C871.656 685.76 874.329 685.76 875.979 687.41L884.427 695.858C886.077 697.508 886.077 700.182 884.427 701.831C883.602 702.656 882.521 703.069 881.44 703.069Z" fill="#925F4A"/>
</g>
<path id="Vector_30" d="M889.888 745.31C888.808 745.31 887.727 744.898 886.902 744.073C885.252 742.423 885.252 739.75 886.902 738.1L891.126 733.875C892.776 732.225 895.45 732.225 897.1 733.875C898.75 735.525 898.75 738.199 897.1 739.849L892.875 744.073C892.05 744.898 890.969 745.31 889.888 745.31Z" fill="#C98850"/>
<g id="Group_6">
<path id="Vector_31" d="M925.209 621.918L917.473 620.371C913.076 619.492 910.132 615.331 910.766 610.892L913.462 592.023C913.702 590.34 914.487 588.803 915.629 587.552C914.482 587.494 913.305 587.863 912.39 588.778L906.421 594.746C905.129 596.039 904.29 597.716 904.032 599.525L901.337 618.395C900.702 622.834 903.647 626.994 908.043 627.873L915.779 629.42C919.136 630.091 922.566 628.671 924.466 625.823L927.011 622.005C926.412 622.017 925.812 622.039 925.209 621.918Z" fill="#FFD796"/>
<path id="Vector_32" d="M898.337 567.13V575.855C898.337 578.301 901.611 579.974 904.622 579.065L918.371 574.916C920.11 574.39 921.251 573.119 921.251 571.705V567.13C921.251 565.221 919.199 563.672 916.668 563.672H902.919C900.389 563.672 898.337 565.221 898.337 567.13Z" fill="#FFE6A1"/>
<path id="Vector_33" d="M906.018 595.828L903.093 611.275C902.405 614.909 905.6 618.315 910.369 619.035L918.762 620.301C922.405 620.851 926.126 619.688 928.187 617.356L931.343 613.783C932.978 611.932 933.334 609.601 932.299 607.519L922.738 588.281C921.548 585.888 917.481 585.223 915.086 587.03L908.611 591.916C907.208 592.974 906.298 594.347 906.018 595.828Z" fill="#FFE6A1"/>
<path id="Vector_34" d="M909.242 572.355C906.467 573.465 903.449 571.421 903.449 568.433V562H899.224C896.892 562 895 563.892 895 566.224V576.882C895 579.871 898.018 581.914 900.793 580.804L913.465 575.735C915.069 575.093 916.121 573.54 916.121 571.813V569.604L909.242 572.355Z" fill="#FFD796"/>
<path id="Vector_35" d="M926.675 641.453L924.178 646.447C923.584 647.636 923.584 649.036 924.178 650.225L925.318 652.505C926.454 654.777 929.325 655.54 931.439 654.131L938.249 649.591C939.424 648.807 940.13 647.488 940.13 646.076V641.525C940.13 638.642 937.305 636.606 934.57 637.518L929.117 639.335C928.055 639.689 927.176 640.451 926.675 641.453Z" fill="#FFD796"/>
</g>
</g>
</g>
<defs>
<clipPath id="clip0_0_1">
<rect width="245" height="245" fill="white" transform="translate(704 551)"/>
</clipPath>
</defs>
</svg>
